# xmcd
#
# Track frame offsets: 
#        150
#        17806
#        22253
#        33075
#        44349
#        57755
#        76001
#        94515
#        103846
#        115778
#        130958
#        150590
#        163517
#        176669
#
# Disc length: 2502 seconds
#
# Revision: 0
# Processed by: cddbd v1.5.2PL0 Copyright (c) Steve Scherf et al.
# Submitted via: ExactAudioCopy v0.99pb4
#
DISCID=a509c40e
DTITLE=Roland - One Step At A Time
DYEAR=1972
DGENRE=Blues
TTITLE0=Another night
TTITLE1=Gig No. 9
TTITLE2=Pistol packin' mamma
TTITLE3=Blues run the game
TTITLE4=Will the circle be unbroken
TTITLE5=Jokes and funky jokers
TTITLE6=Sunday morning come down
TTITLE7=Country shack
TTITLE8=Swamp rise
TTITLE9=Corina Blues
TTITLE10=Don't make promises
TTITLE11=She lies when she smiles
TTITLE12=Galactic glides
TTITLE13=Cripple Creek
EXTD=
EXTT0=
EXTT1=
EXTT2=
EXTT3=
EXTT4=
EXTT5=
EXTT6=
EXTT7=
EXTT8=
EXTT9=
EXTT10=
EXTT11=
EXTT12=
EXTT13=
PLAYORDER=
